<svg xmlns="http://www.w3.org/2000/svg" xmlns:xlink="http://www.w3.org/1999/xlink" width="500" zoomAndPan="magnify" viewBox="0 0 375 374.999991" height="500" preserveAspectRatio="xMidYMid meet" version="1.0"><defs><clipPath id="74ad9856f0"><path d="M 11.089844 210 L 162 210 L 162 361 L 11.089844 361 Z M 11.089844 210 " clip-rule="nonzero"/></clipPath></defs><path fill="#2e2b2b" d="M 247.03125 12.109375 L 126.011719 12.109375 C 125.035156 12.109375 124.066406 12.203125 123.105469 12.394531 C 122.148438 12.582031 121.214844 12.867188 120.3125 13.238281 C 119.40625 13.613281 118.550781 14.070312 117.734375 14.613281 C 116.921875 15.15625 116.167969 15.773438 115.476562 16.464844 C 114.785156 17.15625 114.167969 17.90625 113.625 18.722656 C 113.078125 19.535156 112.621094 20.390625 112.246094 21.296875 C 111.871094 22.199219 111.589844 23.128906 111.398438 24.089844 C 111.207031 25.050781 111.109375 26.019531 111.109375 26.996094 L 111.109375 147.980469 C 111.109375 148.960938 111.207031 149.929688 111.398438 150.890625 C 111.589844 151.847656 111.871094 152.78125 112.246094 153.683594 C 112.621094 154.589844 113.078125 155.445312 113.621094 156.261719 C 114.167969 157.074219 114.785156 157.828125 115.476562 158.519531 C 116.167969 159.210938 116.921875 159.828125 117.734375 160.371094 C 118.546875 160.914062 119.40625 161.375 120.308594 161.75 C 121.214844 162.125 122.144531 162.40625 123.105469 162.597656 C 124.066406 162.789062 125.035156 162.882812 126.011719 162.882812 L 247.03125 162.882812 C 248.011719 162.882812 248.980469 162.789062 249.9375 162.597656 C 250.898438 162.40625 251.828125 162.125 252.734375 161.75 C 253.636719 161.375 254.496094 160.914062 255.308594 160.371094 C 256.121094 159.828125 256.871094 159.210938 257.5625 158.519531 C 258.253906 157.824219 258.871094 157.074219 259.414062 156.257812 C 259.957031 155.445312 260.417969 154.585938 260.789062 153.683594 C 261.164062 152.78125 261.445312 151.847656 261.632812 150.886719 C 261.824219 149.929688 261.917969 148.960938 261.917969 147.980469 L 261.917969 26.996094 C 261.917969 26.019531 261.824219 25.050781 261.632812 24.089844 C 261.445312 23.132812 261.164062 22.199219 260.789062 21.296875 C 260.414062 20.394531 259.957031 19.535156 259.414062 18.722656 C 258.871094 17.910156 258.253906 17.15625 257.5625 16.464844 C 256.871094 15.773438 256.121094 15.15625 255.304688 14.613281 C 254.492188 14.070312 253.636719 13.613281 252.730469 13.238281 C 251.828125 12.867188 250.898438 12.582031 249.9375 12.394531 C 248.980469 12.203125 248.011719 12.109375 247.03125 12.109375 Z M 220.804688 94.136719 C 220.429688 94.492188 220.023438 94.804688 219.585938 95.082031 C 219.152344 95.359375 218.691406 95.59375 218.214844 95.78125 C 217.734375 95.972656 217.242188 96.117188 216.734375 96.210938 C 216.226562 96.308594 215.714844 96.359375 215.199219 96.359375 C 214.683594 96.359375 214.171875 96.308594 213.664062 96.210938 C 213.15625 96.117188 212.664062 95.972656 212.183594 95.78125 C 211.703125 95.59375 211.246094 95.359375 210.8125 95.082031 C 210.375 94.804688 209.96875 94.492188 209.59375 94.136719 L 194.707031 78.96875 L 194.707031 115.269531 C 194.699219 115.796875 194.636719 116.316406 194.527344 116.828125 C 194.417969 117.339844 194.261719 117.839844 194.054688 118.320312 C 193.847656 118.804688 193.597656 119.261719 193.304688 119.699219 C 193.011719 120.132812 192.679688 120.535156 192.308594 120.90625 C 191.9375 121.277344 191.535156 121.609375 191.097656 121.902344 C 190.664062 122.195312 190.207031 122.445312 189.722656 122.652344 C 189.242188 122.859375 188.742188 123.015625 188.230469 123.125 C 187.714844 123.234375 187.199219 123.296875 186.671875 123.308594 C 186.144531 123.308594 185.621094 123.261719 185.101562 123.160156 C 184.582031 123.058594 184.078125 122.910156 183.585938 122.710938 C 183.097656 122.507812 182.632812 122.261719 182.191406 121.96875 C 181.753906 121.675781 181.34375 121.34375 180.96875 120.96875 C 180.597656 120.59375 180.261719 120.1875 179.96875 119.75 C 179.675781 119.308594 179.425781 118.84375 179.226562 118.355469 C 179.023438 117.867188 178.871094 117.363281 178.769531 116.84375 C 178.667969 116.324219 178.617188 115.800781 178.621094 115.269531 L 178.621094 78.96875 L 163.734375 94.136719 C 162.898438 94.816406 161.972656 95.339844 160.957031 95.703125 C 159.945312 96.070312 158.898438 96.261719 157.820312 96.277344 C 155.714844 96.191406 153.851562 95.476562 152.226562 94.136719 C 151.847656 93.761719 151.511719 93.351562 151.214844 92.90625 C 150.917969 92.464844 150.664062 91.996094 150.460938 91.5 C 150.257812 91.007812 150.101562 90.5 149.996094 89.976562 C 149.894531 89.453125 149.839844 88.925781 149.839844 88.390625 C 149.839844 87.855469 149.894531 87.328125 149.996094 86.804688 C 150.101562 86.28125 150.257812 85.773438 150.460938 85.28125 C 150.664062 84.785156 150.917969 84.320312 151.214844 83.875 C 151.511719 83.429688 151.847656 83.019531 152.226562 82.644531 L 180.742188 54.109375 C 181.539062 53.332031 182.453125 52.730469 183.480469 52.304688 C 184.453125 51.886719 185.464844 51.679688 186.523438 51.679688 C 187.578125 51.679688 188.59375 51.886719 189.5625 52.304688 C 190.585938 52.730469 191.496094 53.332031 192.285156 54.109375 L 220.804688 82.644531 C 221.191406 83.015625 221.535156 83.421875 221.839844 83.867188 C 222.144531 84.308594 222.398438 84.773438 222.609375 85.269531 C 222.820312 85.761719 222.976562 86.273438 223.085938 86.796875 C 223.191406 87.324219 223.246094 87.855469 223.246094 88.390625 C 223.246094 88.925781 223.191406 89.457031 223.085938 89.984375 C 222.976562 90.507812 222.820312 91.019531 222.609375 91.511719 C 222.398438 92.007812 222.144531 92.472656 221.839844 92.917969 C 221.535156 93.359375 221.191406 93.765625 220.804688 94.136719 Z M 220.804688 94.136719 " fill-opacity="1" fill-rule="nonzero"/><g clip-path="url(#74ad9856f0)"><path fill="#2e2b2b" d="M 146.410156 210.429688 L 25.359375 210.429688 C 24.378906 210.425781 23.410156 210.519531 22.453125 210.707031 C 21.492188 210.894531 20.558594 211.175781 19.65625 211.546875 C 18.75 211.917969 17.890625 212.375 17.078125 212.917969 C 16.265625 213.460938 15.511719 214.078125 14.820312 214.765625 C 14.125 215.457031 13.507812 216.210938 12.964844 217.023438 C 12.421875 217.835938 11.960938 218.695312 11.585938 219.597656 C 11.214844 220.5 10.929688 221.433594 10.742188 222.390625 C 10.550781 223.351562 10.457031 224.320312 10.457031 225.296875 L 10.457031 346.035156 C 10.457031 347.011719 10.550781 347.980469 10.742188 348.9375 C 10.933594 349.898438 11.21875 350.828125 11.589844 351.734375 C 11.964844 352.636719 12.425781 353.496094 12.96875 354.308594 C 13.511719 355.121094 14.128906 355.875 14.824219 356.566406 C 15.515625 357.257812 16.265625 357.871094 17.082031 358.414062 C 17.894531 358.957031 18.753906 359.417969 19.65625 359.789062 C 20.5625 360.164062 21.492188 360.445312 22.453125 360.636719 C 23.410156 360.824219 24.378906 360.917969 25.359375 360.917969 L 146.410156 360.917969 C 147.390625 360.921875 148.359375 360.828125 149.320312 360.636719 C 150.28125 360.449219 151.214844 360.167969 152.117188 359.796875 C 153.023438 359.421875 153.882812 358.964844 154.695312 358.421875 C 155.511719 357.878906 156.265625 357.261719 156.957031 356.570312 C 157.652344 355.878906 158.269531 355.125 158.816406 354.3125 C 159.359375 353.5 159.820312 352.640625 160.195312 351.738281 C 160.570312 350.832031 160.851562 349.902344 161.042969 348.941406 C 161.234375 347.980469 161.328125 347.011719 161.328125 346.035156 L 161.328125 225.296875 C 161.332031 224.320312 161.238281 223.351562 161.046875 222.390625 C 160.855469 221.429688 160.574219 220.496094 160.199219 219.59375 C 159.824219 218.691406 159.363281 217.832031 158.820312 217.019531 C 158.273438 216.203125 157.65625 215.453125 156.960938 214.761719 C 156.269531 214.070312 155.515625 213.453125 154.699219 212.914062 C 153.886719 212.371094 153.023438 211.914062 152.121094 211.542969 C 151.214844 211.171875 150.28125 210.890625 149.320312 210.703125 C 148.359375 210.515625 147.390625 210.425781 146.410156 210.429688 Z M 113.632812 293.726562 L 77.617188 293.726562 L 92.515625 308.578125 C 92.875 308.96875 93.191406 309.386719 93.46875 309.835938 C 93.746094 310.285156 93.980469 310.753906 94.171875 311.246094 C 94.363281 311.738281 94.507812 312.246094 94.601562 312.761719 C 94.699219 313.28125 94.75 313.804688 94.75 314.332031 C 94.75 314.859375 94.699219 315.382812 94.601562 315.902344 C 94.507812 316.421875 94.363281 316.925781 94.171875 317.417969 C 93.980469 317.910156 93.746094 318.382812 93.46875 318.832031 C 93.191406 319.28125 92.875 319.699219 92.515625 320.089844 C 91.683594 320.769531 90.761719 321.296875 89.75 321.667969 C 88.742188 322.035156 87.695312 322.230469 86.621094 322.242188 C 84.515625 322.179688 82.644531 321.484375 81.007812 320.15625 L 52.472656 291.289062 C 51.6875 290.625 51.082031 289.828125 50.652344 288.898438 C 50.222656 287.859375 50.003906 286.78125 50 285.65625 C 50.007812 284.550781 50.222656 283.488281 50.652344 282.464844 C 51.15625 281.597656 51.761719 280.804688 52.472656 280.09375 L 81.007812 251.242188 C 81.386719 250.878906 81.800781 250.558594 82.242188 250.273438 C 82.6875 249.992188 83.152344 249.753906 83.640625 249.5625 C 84.128906 249.371094 84.632812 249.226562 85.148438 249.132812 C 85.667969 249.039062 86.1875 248.992188 86.714844 249 C 87.238281 249.007812 87.757812 249.0625 88.273438 249.171875 C 88.789062 249.277344 89.289062 249.433594 89.773438 249.636719 C 90.257812 249.839844 90.714844 250.089844 91.152344 250.382812 C 91.589844 250.675781 91.992188 251.007812 92.363281 251.378906 C 92.738281 251.75 93.070312 252.152344 93.363281 252.589844 C 93.65625 253.023438 93.90625 253.484375 94.109375 253.96875 C 94.316406 254.453125 94.472656 254.953125 94.578125 255.464844 C 94.6875 255.980469 94.746094 256.5 94.75 257.027344 C 94.757812 257.550781 94.714844 258.074219 94.621094 258.589844 C 94.527344 259.105469 94.382812 259.609375 94.191406 260.101562 C 94 260.589844 93.765625 261.054688 93.484375 261.5 C 93.199219 261.941406 92.878906 262.355469 92.515625 262.738281 L 77.617188 277.636719 L 113.632812 277.636719 C 114.148438 277.660156 114.652344 277.734375 115.152344 277.855469 C 115.652344 277.972656 116.132812 278.140625 116.601562 278.351562 C 117.066406 278.566406 117.511719 278.820312 117.929688 279.117188 C 118.347656 279.414062 118.734375 279.75 119.089844 280.121094 C 119.445312 280.492188 119.761719 280.890625 120.039062 281.324219 C 120.316406 281.753906 120.550781 282.210938 120.742188 282.6875 C 120.933594 283.164062 121.074219 283.652344 121.171875 284.15625 C 121.269531 284.660156 121.320312 285.167969 121.320312 285.683594 C 121.320312 286.195312 121.269531 286.703125 121.171875 287.207031 C 121.074219 287.710938 120.933594 288.203125 120.742188 288.679688 C 120.550781 289.15625 120.316406 289.609375 120.039062 290.039062 C 119.761719 290.472656 119.445312 290.875 119.089844 291.246094 C 118.734375 291.617188 118.347656 291.949219 117.929688 292.246094 C 117.511719 292.542969 117.066406 292.800781 116.601562 293.011719 C 116.132812 293.222656 115.652344 293.390625 115.152344 293.511719 C 114.652344 293.632812 114.148438 293.703125 113.632812 293.726562 Z M 113.632812 293.726562 " fill-opacity="1" fill-rule="nonzero"/></g><path fill="#2e2b2b" d="M 347.652344 210.429688 L 226.96875 210.429688 C 225.984375 210.421875 225.003906 210.507812 224.035156 210.691406 C 223.066406 210.875 222.125 211.152344 221.210938 211.519531 C 220.296875 211.886719 219.429688 212.34375 218.601562 212.882812 C 217.777344 213.421875 217.011719 214.035156 216.308594 214.726562 C 215.605469 215.417969 214.976562 216.167969 214.417969 216.984375 C 213.863281 217.796875 213.390625 218.65625 213.003906 219.5625 C 212.617188 220.472656 212.324219 221.40625 212.121094 222.371094 C 211.917969 223.335938 211.808594 224.3125 211.800781 225.296875 L 211.800781 346.035156 C 211.816406 347.019531 211.925781 347.992188 212.128906 348.957031 C 212.335938 349.917969 212.632812 350.855469 213.023438 351.757812 C 213.410156 352.664062 213.882812 353.523438 214.4375 354.335938 C 214.996094 355.148438 215.625 355.902344 216.328125 356.589844 C 217.03125 357.28125 217.792969 357.894531 218.617188 358.4375 C 219.441406 358.976562 220.308594 359.433594 221.222656 359.804688 C 222.132812 360.175781 223.074219 360.457031 224.039062 360.640625 C 225.007812 360.828125 225.984375 360.921875 226.96875 360.917969 L 347.652344 360.917969 C 348.632812 360.921875 349.601562 360.828125 350.5625 360.636719 C 351.519531 360.449219 352.453125 360.167969 353.359375 359.792969 C 354.261719 359.421875 355.121094 358.964844 355.9375 358.421875 C 356.75 357.878906 357.503906 357.261719 358.195312 356.570312 C 358.886719 355.878906 359.503906 355.125 360.046875 354.3125 C 360.59375 353.5 361.050781 352.640625 361.425781 351.734375 C 361.800781 350.832031 362.082031 349.898438 362.273438 348.941406 C 362.460938 347.980469 362.558594 347.011719 362.554688 346.035156 L 362.554688 225.296875 C 362.558594 224.320312 362.464844 223.351562 362.273438 222.390625 C 362.085938 221.429688 361.804688 220.5 361.429688 219.59375 C 361.054688 218.691406 360.597656 217.832031 360.054688 217.019531 C 359.507812 216.207031 358.890625 215.453125 358.199219 214.761719 C 357.507812 214.070312 356.753906 213.457031 355.9375 212.914062 C 355.125 212.371094 354.265625 211.914062 353.359375 211.542969 C 352.453125 211.171875 351.523438 210.890625 350.5625 210.703125 C 349.601562 210.515625 348.632812 210.425781 347.652344 210.429688 Z M 320.839844 291.289062 L 292.003906 320.15625 C 291.230469 320.839844 290.355469 321.363281 289.390625 321.734375 C 288.425781 322.105469 287.425781 322.296875 286.390625 322.3125 C 285.355469 322.316406 284.355469 322.136719 283.390625 321.765625 C 282.421875 321.390625 281.558594 320.855469 280.796875 320.15625 C 280.410156 319.78125 280.0625 319.375 279.761719 318.933594 C 279.457031 318.488281 279.199219 318.019531 278.988281 317.527344 C 278.78125 317.03125 278.621094 316.523438 278.515625 315.996094 C 278.40625 315.46875 278.351562 314.9375 278.351562 314.398438 C 278.351562 313.863281 278.40625 313.332031 278.515625 312.804688 C 278.621094 312.277344 278.78125 311.769531 278.988281 311.273438 C 279.199219 310.78125 279.457031 310.3125 279.761719 309.867188 C 280.0625 309.425781 280.410156 309.019531 280.796875 308.644531 L 295.679688 293.792969 L 259.378906 293.792969 C 258.835938 293.816406 258.292969 293.789062 257.757812 293.703125 C 257.21875 293.617188 256.695312 293.480469 256.1875 293.289062 C 255.675781 293.097656 255.191406 292.859375 254.730469 292.570312 C 254.269531 292.28125 253.84375 291.945312 253.449219 291.570312 C 253.054688 291.195312 252.703125 290.785156 252.394531 290.335938 C 252.082031 289.890625 251.820312 289.414062 251.609375 288.914062 C 251.394531 288.414062 251.230469 287.898438 251.125 287.363281 C 251.015625 286.832031 250.960938 286.292969 250.960938 285.75 C 250.960938 285.203125 251.015625 284.667969 251.125 284.132812 C 251.234375 283.601562 251.394531 283.082031 251.609375 282.582031 C 251.820312 282.082031 252.082031 281.609375 252.394531 281.160156 C 252.703125 280.714844 253.054688 280.304688 253.449219 279.925781 C 253.84375 279.550781 254.269531 279.21875 254.730469 278.929688 C 255.191406 278.640625 255.675781 278.398438 256.1875 278.207031 C 256.695312 278.019531 257.21875 277.878906 257.757812 277.796875 C 258.292969 277.710938 258.835938 277.679688 259.378906 277.707031 L 295.699219 277.707031 L 280.796875 262.804688 C 280.410156 262.429688 280.066406 262.023438 279.761719 261.582031 C 279.457031 261.140625 279.199219 260.671875 278.992188 260.179688 C 278.78125 259.683594 278.621094 259.175781 278.515625 258.648438 C 278.410156 258.125 278.355469 257.59375 278.355469 257.054688 C 278.355469 256.519531 278.410156 255.988281 278.515625 255.464844 C 278.621094 254.9375 278.78125 254.429688 278.992188 253.933594 C 279.199219 253.441406 279.457031 252.972656 279.761719 252.53125 C 280.066406 252.089844 280.410156 251.683594 280.796875 251.308594 C 281.171875 250.953125 281.574219 250.636719 282.011719 250.359375 C 282.445312 250.082031 282.902344 249.847656 283.382812 249.65625 C 283.863281 249.464844 284.359375 249.320312 284.863281 249.222656 C 285.371094 249.125 285.882812 249.078125 286.402344 249.078125 C 286.917969 249.078125 287.429688 249.125 287.9375 249.222656 C 288.445312 249.320312 288.9375 249.464844 289.417969 249.65625 C 289.898438 249.847656 290.355469 250.082031 290.789062 250.359375 C 291.226562 250.636719 291.628906 250.953125 292.003906 251.308594 L 320.839844 280.0625 C 321.359375 280.8125 321.910156 281.730469 322.34375 282.433594 C 322.773438 283.453125 322.988281 284.515625 322.996094 285.625 C 322.992188 286.746094 322.773438 287.828125 322.34375 288.863281 C 321.9375 289.730469 321.433594 290.539062 320.839844 291.289062 Z M 320.839844 291.289062 " fill-opacity="1" fill-rule="nonzero"/></svg>