<svg xmlns="http://www.w3.org/2000/svg" xmlns:xlink="http://www.w3.org/1999/xlink" width="500" zoomAndPan="magnify" viewBox="0 0 375 374.999991" height="500" preserveAspectRatio="xMidYMid meet" version="1.0"><defs><clipPath id="26d05c83dc"><path d="M 47 37.5 L 176 37.5 L 176 190 L 47 190 Z M 47 37.5 " clip-rule="nonzero"/></clipPath><clipPath id="56e4a9d2ef"><path d="M 9.40625 194 L 365.65625 194 L 365.65625 343.5 L 9.40625 343.5 Z M 9.40625 194 " clip-rule="nonzero"/></clipPath></defs><path fill="#2e2b2b" d="M 120.605469 262.8125 L 132.773438 262.8125 L 132.773438 274.992188 L 120.605469 274.992188 Z M 120.605469 262.8125 " fill-opacity="1" fill-rule="nonzero"/><path fill="#2e2b2b" d="M 120.605469 220.1875 L 132.773438 220.1875 L 132.773438 232.367188 L 120.605469 232.367188 Z M 120.605469 220.1875 " fill-opacity="1" fill-rule="nonzero"/><path fill="#2e2b2b" d="M 163.195312 262.8125 L 175.363281 262.8125 L 175.363281 274.992188 L 163.195312 274.992188 Z M 163.195312 262.8125 " fill-opacity="1" fill-rule="nonzero"/><path fill="#2e2b2b" d="M 35.425781 262.8125 L 47.59375 262.8125 L 47.59375 274.992188 L 35.425781 274.992188 Z M 35.425781 262.8125 " fill-opacity="1" fill-rule="nonzero"/><path fill="#2e2b2b" d="M 78.015625 305.441406 L 90.183594 305.441406 L 90.183594 317.621094 L 78.015625 317.621094 Z M 78.015625 305.441406 " fill-opacity="1" fill-rule="nonzero"/><path fill="#2e2b2b" d="M 35.425781 220.1875 L 47.59375 220.1875 L 47.59375 232.367188 L 35.425781 232.367188 Z M 35.425781 220.1875 " fill-opacity="1" fill-rule="nonzero"/><path fill="#2e2b2b" d="M 248.375 220.1875 L 260.542969 220.1875 L 260.542969 232.367188 L 248.375 232.367188 Z M 248.375 220.1875 " fill-opacity="1" fill-rule="nonzero"/><path fill="#2e2b2b" d="M 290.964844 220.1875 L 303.132812 220.1875 L 303.132812 232.367188 L 290.964844 232.367188 Z M 290.964844 220.1875 " fill-opacity="1" fill-rule="nonzero"/><path fill="#2e2b2b" d="M 163.195312 220.1875 L 175.363281 220.1875 L 175.363281 232.367188 L 163.195312 232.367188 Z M 163.195312 220.1875 " fill-opacity="1" fill-rule="nonzero"/><g clip-path="url(#26d05c83dc)"><path fill="#2e2b2b" d="M 71.933594 174.578125 C 71.933594 172.863281 70.539062 171.46875 68.828125 171.46875 L 65.847656 171.46875 L 65.847656 122.148438 C 65.847656 119.125 68.304688 116.664062 71.328125 116.664062 L 153.398438 116.664062 C 165.511719 116.664062 175.363281 106.800781 175.363281 94.679688 L 175.363281 83.84375 C 175.363281 71.71875 165.511719 61.859375 153.398438 61.859375 L 126.085938 61.859375 C 123.0625 61.859375 120.605469 59.398438 120.605469 56.371094 L 120.605469 37.5 L 108.4375 37.5 L 108.4375 56.371094 C 108.4375 66.113281 116.355469 74.039062 126.085938 74.039062 L 153.398438 74.039062 C 158.800781 74.039062 163.195312 78.433594 163.195312 83.84375 L 163.195312 94.679688 C 163.195312 100.085938 158.800781 104.484375 153.398438 104.484375 L 71.328125 104.484375 C 61.597656 104.484375 53.679688 112.410156 53.679688 122.148438 L 53.679688 171.46875 L 50.699219 171.46875 C 48.988281 171.46875 47.59375 172.863281 47.59375 174.578125 L 47.59375 189.738281 L 71.933594 189.738281 Z M 71.933594 174.578125 " fill-opacity="1" fill-rule="nonzero"/></g><path fill="#2e2b2b" d="M 78.015625 262.8125 L 90.183594 262.8125 L 90.183594 274.992188 L 78.015625 274.992188 Z M 78.015625 262.8125 " fill-opacity="1" fill-rule="nonzero"/><path fill="#2e2b2b" d="M 205.785156 220.1875 L 217.953125 220.1875 L 217.953125 232.367188 L 205.785156 232.367188 Z M 205.785156 220.1875 " fill-opacity="1" fill-rule="nonzero"/><path fill="#2e2b2b" d="M 205.785156 262.8125 L 217.953125 262.8125 L 217.953125 274.992188 L 205.785156 274.992188 Z M 205.785156 262.8125 " fill-opacity="1" fill-rule="nonzero"/><path fill="#2e2b2b" d="M 35.425781 305.441406 L 47.59375 305.441406 L 47.59375 317.621094 L 35.425781 317.621094 Z M 35.425781 305.441406 " fill-opacity="1" fill-rule="nonzero"/><path fill="#2e2b2b" d="M 327.46875 305.441406 L 339.636719 305.441406 L 339.636719 317.621094 L 327.46875 317.621094 Z M 327.46875 305.441406 " fill-opacity="1" fill-rule="nonzero"/><path fill="#2e2b2b" d="M 120.605469 305.441406 L 254.457031 305.441406 L 254.457031 317.621094 L 120.605469 317.621094 Z M 120.605469 305.441406 " fill-opacity="1" fill-rule="nonzero"/><path fill="#2e2b2b" d="M 333.554688 256.722656 C 333.554688 260.085938 330.828125 262.8125 327.46875 262.8125 L 290.964844 262.8125 L 290.964844 274.992188 L 339.636719 274.992188 L 339.636719 220.1875 L 333.554688 220.1875 Z M 333.554688 256.722656 " fill-opacity="1" fill-rule="nonzero"/><path fill="#2e2b2b" d="M 284.878906 305.441406 L 297.046875 305.441406 L 297.046875 317.621094 L 284.878906 317.621094 Z M 284.878906 305.441406 " fill-opacity="1" fill-rule="nonzero"/><path fill="#2e2b2b" d="M 248.375 262.8125 L 260.542969 262.8125 L 260.542969 274.992188 L 248.375 274.992188 Z M 248.375 262.8125 " fill-opacity="1" fill-rule="nonzero"/><g clip-path="url(#56e4a9d2ef)"><path fill="#2e2b2b" d="M 363.972656 194.304688 L 11.089844 194.304688 C 10.25 194.304688 9.570312 194.988281 9.570312 195.828125 L 9.570312 341.976562 C 9.570312 342.816406 10.25 343.5 11.089844 343.5 L 363.972656 343.5 C 364.8125 343.5 365.496094 342.816406 365.496094 341.976562 L 365.496094 195.828125 C 365.496094 194.988281 364.8125 194.304688 363.972656 194.304688 Z M 278.796875 214.097656 C 278.796875 210.734375 281.519531 208.007812 284.878906 208.007812 L 309.214844 208.007812 C 312.578125 208.007812 315.300781 210.734375 315.300781 214.097656 L 315.300781 238.457031 C 315.300781 241.816406 312.578125 244.542969 309.214844 244.542969 L 284.878906 244.542969 C 281.519531 244.542969 278.796875 241.816406 278.796875 238.457031 Z M 236.207031 214.097656 C 236.207031 210.734375 238.929688 208.007812 242.289062 208.007812 L 266.625 208.007812 C 269.988281 208.007812 272.710938 210.734375 272.710938 214.097656 L 272.710938 238.457031 C 272.710938 241.816406 269.988281 244.542969 266.625 244.542969 L 242.289062 244.542969 C 238.929688 244.542969 236.207031 241.816406 236.207031 238.457031 Z M 193.617188 214.097656 C 193.617188 210.734375 196.339844 208.007812 199.699219 208.007812 L 224.039062 208.007812 C 227.398438 208.007812 230.121094 210.734375 230.121094 214.097656 L 230.121094 238.457031 C 230.121094 241.816406 227.398438 244.542969 224.039062 244.542969 L 199.699219 244.542969 C 196.339844 244.542969 193.617188 241.816406 193.617188 238.457031 Z M 193.617188 256.722656 C 193.617188 253.359375 196.339844 250.632812 199.699219 250.632812 L 224.039062 250.632812 C 227.398438 250.632812 230.121094 253.359375 230.121094 256.722656 L 230.121094 281.082031 C 230.121094 284.445312 227.398438 287.171875 224.039062 287.171875 L 199.699219 287.171875 C 196.339844 287.171875 193.617188 284.445312 193.617188 281.082031 Z M 151.027344 214.097656 C 151.027344 210.734375 153.75 208.007812 157.109375 208.007812 L 181.449219 208.007812 C 184.808594 208.007812 187.53125 210.734375 187.53125 214.097656 L 187.53125 238.457031 C 187.53125 241.816406 184.808594 244.542969 181.449219 244.542969 L 157.109375 244.542969 C 153.75 244.542969 151.027344 241.816406 151.027344 238.457031 Z M 151.027344 256.722656 C 151.027344 253.359375 153.75 250.632812 157.109375 250.632812 L 181.449219 250.632812 C 184.808594 250.632812 187.53125 253.359375 187.53125 256.722656 L 187.53125 281.082031 C 187.53125 284.445312 184.808594 287.171875 181.449219 287.171875 L 157.109375 287.171875 C 153.75 287.171875 151.027344 284.445312 151.027344 281.082031 Z M 108.4375 214.097656 C 108.4375 210.734375 111.160156 208.007812 114.519531 208.007812 L 138.859375 208.007812 C 142.21875 208.007812 144.941406 210.734375 144.941406 214.097656 L 144.941406 238.457031 C 144.941406 241.816406 142.21875 244.542969 138.859375 244.542969 L 114.519531 244.542969 C 111.160156 244.542969 108.4375 241.816406 108.4375 238.457031 Z M 108.4375 256.722656 C 108.4375 253.359375 111.160156 250.632812 114.519531 250.632812 L 138.859375 250.632812 C 142.21875 250.632812 144.941406 253.359375 144.941406 256.722656 L 144.941406 281.082031 C 144.941406 284.445312 142.21875 287.171875 138.859375 287.171875 L 114.519531 287.171875 C 111.160156 287.171875 108.4375 284.445312 108.4375 281.082031 Z M 59.761719 323.707031 C 59.761719 327.070312 57.039062 329.796875 53.679688 329.796875 L 29.34375 329.796875 C 25.980469 329.796875 23.257812 327.070312 23.257812 323.707031 L 23.257812 299.351562 C 23.257812 295.988281 25.980469 293.261719 29.34375 293.261719 L 53.679688 293.261719 C 57.039062 293.261719 59.761719 295.988281 59.761719 299.351562 Z M 59.761719 281.082031 C 59.761719 284.445312 57.039062 287.171875 53.679688 287.171875 L 29.34375 287.171875 C 25.980469 287.171875 23.257812 284.445312 23.257812 281.082031 L 23.257812 256.722656 C 23.257812 253.359375 25.980469 250.632812 29.34375 250.632812 L 53.679688 250.632812 C 57.039062 250.632812 59.761719 253.359375 59.761719 256.722656 Z M 59.761719 238.457031 C 59.761719 241.816406 57.039062 244.542969 53.679688 244.542969 L 29.34375 244.542969 C 25.980469 244.542969 23.257812 241.816406 23.257812 238.457031 L 23.257812 214.097656 C 23.257812 210.734375 25.980469 208.007812 29.34375 208.007812 L 53.679688 208.007812 C 57.039062 208.007812 59.761719 210.734375 59.761719 214.097656 Z M 102.351562 323.707031 C 102.351562 327.070312 99.628906 329.796875 96.269531 329.796875 L 71.933594 329.796875 C 68.570312 329.796875 65.847656 327.070312 65.847656 323.707031 L 65.847656 299.351562 C 65.847656 295.988281 68.570312 293.261719 71.933594 293.261719 L 96.269531 293.261719 C 99.628906 293.261719 102.351562 295.988281 102.351562 299.351562 Z M 102.351562 281.082031 C 102.351562 284.445312 99.628906 287.171875 96.269531 287.171875 L 71.933594 287.171875 C 68.570312 287.171875 65.847656 284.445312 65.847656 281.082031 L 65.847656 256.722656 C 65.847656 253.359375 68.570312 250.632812 71.933594 250.632812 L 96.269531 250.632812 C 99.628906 250.632812 102.351562 253.359375 102.351562 256.722656 Z M 102.351562 238.457031 C 102.351562 241.816406 99.628906 244.542969 96.269531 244.542969 L 71.933594 244.542969 C 68.570312 244.542969 65.847656 241.816406 65.847656 238.457031 L 65.847656 214.097656 C 65.847656 210.734375 68.570312 208.007812 71.933594 208.007812 L 96.269531 208.007812 C 99.628906 208.007812 102.351562 210.734375 102.351562 214.097656 Z M 266.625 323.707031 C 266.625 327.070312 263.902344 329.796875 260.542969 329.796875 L 114.519531 329.796875 C 111.160156 329.796875 108.4375 327.070312 108.4375 323.707031 L 108.4375 299.351562 C 108.4375 295.988281 111.160156 293.261719 114.519531 293.261719 L 260.542969 293.261719 C 263.902344 293.261719 266.625 295.988281 266.625 299.351562 Z M 266.625 287.171875 L 242.289062 287.171875 C 238.929688 287.171875 236.207031 284.445312 236.207031 281.082031 L 236.207031 256.722656 C 236.207031 253.359375 238.929688 250.632812 242.289062 250.632812 L 266.625 250.632812 C 269.988281 250.632812 272.710938 253.359375 272.710938 256.722656 L 272.710938 281.082031 C 272.710938 284.445312 269.988281 287.171875 266.625 287.171875 Z M 309.214844 323.707031 C 309.214844 327.070312 306.492188 329.796875 303.132812 329.796875 L 278.796875 329.796875 C 275.433594 329.796875 272.710938 327.070312 272.710938 323.707031 L 272.710938 299.351562 C 272.710938 295.988281 275.433594 293.261719 278.796875 293.261719 L 303.132812 293.261719 C 306.492188 293.261719 309.214844 295.988281 309.214844 299.351562 Z M 351.804688 323.707031 C 351.804688 327.070312 349.082031 329.796875 345.722656 329.796875 L 321.386719 329.796875 C 318.023438 329.796875 315.300781 327.070312 315.300781 323.707031 L 315.300781 299.351562 C 315.300781 295.988281 318.023438 293.261719 321.386719 293.261719 L 345.722656 293.261719 C 349.082031 293.261719 351.804688 295.988281 351.804688 299.351562 Z M 351.804688 281.082031 C 351.804688 284.445312 349.082031 287.171875 345.722656 287.171875 L 284.878906 287.171875 C 281.519531 287.171875 278.796875 284.445312 278.796875 281.082031 L 278.796875 256.722656 C 278.796875 253.359375 281.519531 250.632812 284.878906 250.632812 L 321.386719 250.632812 L 321.386719 214.097656 C 321.386719 210.734375 324.109375 208.007812 327.46875 208.007812 L 345.722656 208.007812 C 349.082031 208.007812 351.804688 210.734375 351.804688 214.097656 Z M 351.804688 281.082031 " fill-opacity="1" fill-rule="nonzero"/></g><path fill="#2e2b2b" d="M 78.015625 220.1875 L 90.183594 220.1875 L 90.183594 232.367188 L 78.015625 232.367188 Z M 78.015625 220.1875 " fill-opacity="1" fill-rule="nonzero"/><path fill="#2e2b2b" d="M 248.375 89.414062 C 248.375 92.769531 251.105469 95.503906 254.457031 95.503906 C 257.8125 95.503906 260.542969 92.769531 260.542969 89.414062 L 260.542969 77.234375 C 260.542969 73.875 257.8125 71.144531 254.457031 71.144531 C 251.105469 71.144531 248.375 73.875 248.375 77.234375 Z M 248.375 89.414062 " fill-opacity="1" fill-rule="nonzero"/><path fill="#2e2b2b" d="M 230.941406 161.488281 C 237.875 166.085938 246.050781 168.578125 254.457031 168.578125 C 262.867188 168.578125 271.046875 166.082031 277.988281 161.484375 C 277.347656 160.703125 276.683594 159.945312 275.96875 159.226562 C 270.226562 153.476562 262.589844 150.308594 254.457031 150.308594 C 245.269531 150.308594 236.664062 154.5 230.941406 161.488281 Z M 230.941406 161.488281 " fill-opacity="1" fill-rule="nonzero"/><path fill="#2e2b2b" d="M 254.457031 138.128906 C 265.84375 138.128906 276.539062 142.566406 284.574219 150.617188 C 285.453125 151.496094 286.273438 152.421875 287.070312 153.371094 C 293.472656 145.742188 297.046875 136.058594 297.046875 125.949219 L 297.046875 65.054688 C 297.046875 62.457031 296.203125 60 294.601562 57.949219 C 293.027344 55.929688 290.792969 54.472656 288.304688 53.851562 C 279.210938 51.574219 269.894531 50.238281 260.542969 49.828125 L 260.542969 60.011719 C 267.625 62.527344 272.710938 69.296875 272.710938 77.234375 L 272.710938 89.414062 C 272.710938 99.488281 264.523438 107.683594 254.457031 107.683594 C 244.394531 107.683594 236.207031 99.488281 236.207031 89.414062 L 236.207031 77.234375 C 236.207031 69.296875 241.292969 62.527344 248.375 60.011719 L 248.375 49.828125 C 239.019531 50.238281 229.707031 51.574219 220.605469 53.851562 C 215.464844 55.140625 211.867188 59.746094 211.867188 65.054688 L 211.867188 125.949219 C 211.867188 136.054688 215.441406 145.734375 221.839844 153.363281 C 229.855469 143.820312 241.769531 138.128906 254.457031 138.128906 Z M 254.457031 138.128906 " fill-opacity="1" fill-rule="nonzero"/></svg>