<svg xmlns="http://www.w3.org/2000/svg" xmlns:xlink="http://www.w3.org/1999/xlink" width="500" zoomAndPan="magnify" viewBox="0 0 375 374.999991" height="500" preserveAspectRatio="xMidYMid meet" version="1.0"><defs><clipPath id="7197a892b2"><path d="M 12.402344 99.074219 L 362.652344 99.074219 L 362.652344 276.074219 L 12.402344 276.074219 Z M 12.402344 99.074219 " clip-rule="nonzero"/></clipPath></defs><g clip-path="url(#7197a892b2)"><path fill="#2e2b2b" d="M 352.914062 152.328125 L 347.457031 152.328125 C 347.078125 152.328125 346.507812 152.328125 346.128906 152.46875 L 346.128906 135.652344 C 346.128906 115.511719 329.703125 99.074219 309.574219 99.074219 L 48.957031 99.074219 C 28.832031 99.074219 12.40625 115.511719 12.40625 135.652344 L 12.40625 239.496094 C 12.40625 259.640625 28.832031 276.074219 48.957031 276.074219 L 309.574219 276.074219 C 329.703125 276.074219 346.128906 259.640625 346.128906 239.496094 L 346.128906 225.101562 C 346.507812 225.246094 347.078125 225.246094 347.457031 225.246094 L 352.914062 225.246094 C 358.375 225.246094 362.648438 220.828125 362.648438 215.507812 L 362.648438 162.066406 C 362.648438 156.746094 358.375 152.328125 352.914062 152.328125 Z M 329.324219 239.496094 C 329.324219 250.421875 320.398438 259.402344 309.433594 259.402344 L 48.957031 259.402344 C 38.039062 259.402344 29.066406 250.46875 29.066406 239.496094 L 29.066406 135.652344 C 29.066406 124.726562 37.992188 115.75 48.957031 115.75 L 309.574219 115.75 C 320.492188 115.75 329.464844 124.679688 329.464844 135.652344 C 329.324219 135.652344 329.324219 239.496094 329.324219 239.496094 Z M 329.324219 239.496094 " fill-opacity="1" fill-rule="nonzero"/></g><path fill="#2e2b2b" d="M 309.195312 250.28125 L 48.152344 250.28125 C 45.019531 250.28125 42.453125 247.714844 42.453125 244.582031 L 42.453125 130.523438 C 42.453125 127.386719 45.019531 124.824219 48.152344 124.824219 L 309.195312 124.824219 C 312.328125 124.824219 314.890625 127.386719 314.890625 130.523438 L 314.890625 244.582031 C 314.890625 247.714844 312.328125 250.28125 309.195312 250.28125 Z M 309.195312 250.28125 " fill-opacity="1" fill-rule="nonzero"/></svg>