<svg xmlns="http://www.w3.org/2000/svg" xmlns:xlink="http://www.w3.org/1999/xlink" width="1000" zoomAndPan="magnify" viewBox="0 0 750 225" height="300" preserveAspectRatio="xMidYMid meet" version="1.0"><defs><g/><clipPath id="1079e8054a"><path d="M 10.265625 7.777344 L 265.988281 7.777344 L 265.988281 192.878906 L 10.265625 192.878906 Z M 10.265625 7.777344 " clip-rule="nonzero"/></clipPath></defs><g clip-path="url(#1079e8054a)"><path fill="#c2c5aa" d="M 77.089844 140.738281 L 67.929688 140.738281 L 67.929688 133.074219 L 77.089844 133.074219 Z M 79.996094 127.253906 L 65.015625 127.253906 C 63.414062 127.253906 62.09375 128.570312 62.09375 130.175781 L 62.09375 143.640625 C 62.09375 145.242188 63.414062 146.558594 65.015625 146.558594 L 79.996094 146.558594 C 81.609375 146.558594 82.921875 145.242188 82.921875 143.640625 L 82.921875 130.175781 C 82.921875 128.570312 81.609375 127.253906 79.996094 127.253906 Z M 87.0625 112.226562 L 77.914062 112.226562 L 77.914062 104.59375 L 87.0625 104.59375 Z M 92.898438 115.140625 L 92.898438 101.679688 C 92.898438 100.085938 91.582031 98.773438 89.976562 98.773438 L 74.996094 98.773438 C 73.390625 98.773438 72.074219 100.085938 72.074219 101.679688 L 72.074219 115.140625 C 72.074219 116.738281 73.390625 118.046875 74.996094 118.046875 L 89.976562 118.046875 C 91.582031 118.046875 92.898438 116.738281 92.898438 115.140625 Z M 73.703125 169.273438 L 64.550781 169.273438 L 64.550781 161.597656 L 73.703125 161.597656 Z M 76.617188 155.777344 L 61.636719 155.777344 C 60.03125 155.777344 58.714844 157.097656 58.714844 158.691406 L 58.714844 172.183594 C 58.714844 173.777344 60.03125 175.09375 61.636719 175.09375 L 76.617188 175.09375 C 78.226562 175.09375 79.539062 173.777344 79.539062 172.183594 L 79.539062 158.691406 C 79.539062 157.097656 78.226562 155.777344 76.617188 155.777344 Z M 47.894531 140.738281 L 35.085938 140.738281 L 35.085938 133.074219 L 47.894531 133.074219 Z M 50.808594 127.253906 L 32.171875 127.253906 C 30.570312 127.253906 29.253906 128.570312 29.253906 130.175781 L 29.253906 143.640625 C 29.253906 145.242188 30.570312 146.558594 32.171875 146.558594 L 50.808594 146.558594 C 52.414062 146.558594 53.730469 145.242188 53.730469 143.640625 L 53.730469 130.175781 C 53.730469 128.570312 52.414062 127.253906 50.808594 127.253906 Z M 35.085938 104.59375 L 56.300781 104.59375 L 56.300781 112.226562 L 35.085938 112.226562 Z M 32.171875 118.046875 L 59.214844 118.046875 C 60.820312 118.046875 62.136719 116.738281 62.136719 115.140625 L 62.136719 101.679688 C 62.136719 100.085938 60.820312 98.773438 59.214844 98.773438 L 32.171875 98.773438 C 30.570312 98.773438 29.253906 100.085938 29.253906 101.679688 L 29.253906 115.140625 C 29.253906 116.738281 30.570312 118.046875 32.171875 118.046875 Z M 44.242188 169.273438 L 35.085938 169.273438 L 35.085938 161.597656 L 44.242188 161.597656 Z M 47.160156 155.777344 L 32.171875 155.777344 C 30.570312 155.777344 29.253906 157.097656 29.253906 158.691406 L 29.253906 172.183594 C 29.253906 173.777344 30.570312 175.09375 32.171875 175.09375 L 47.160156 175.09375 C 48.765625 175.09375 50.082031 173.777344 50.082031 172.183594 L 50.082031 158.691406 C 50.082031 157.097656 48.765625 155.777344 47.160156 155.777344 Z M 201.441406 169.273438 L 192.292969 169.273438 L 192.292969 161.597656 L 201.441406 161.597656 Z M 204.347656 155.777344 L 189.378906 155.777344 C 187.769531 155.777344 186.457031 157.097656 186.457031 158.691406 L 186.457031 172.183594 C 186.457031 173.777344 187.769531 175.09375 189.378906 175.09375 L 204.347656 175.09375 C 205.96875 175.09375 207.277344 173.777344 207.277344 172.183594 L 207.277344 158.691406 C 207.277344 157.097656 205.96875 155.777344 204.347656 155.777344 Z M 241.164062 112.226562 L 232.007812 112.226562 L 232.007812 104.59375 L 241.164062 104.59375 Z M 244.078125 98.773438 L 229.09375 98.773438 C 227.492188 98.773438 226.171875 100.085938 226.171875 101.679688 L 226.171875 115.140625 C 226.171875 116.738281 227.492188 118.046875 229.09375 118.046875 L 244.078125 118.046875 C 245.6875 118.046875 247 116.738281 247 115.140625 L 247 101.679688 C 247 100.085938 245.6875 98.773438 244.078125 98.773438 Z M 241.164062 140.738281 L 213.984375 140.738281 L 213.984375 133.074219 L 241.164062 133.074219 Z M 244.078125 127.253906 L 211.070312 127.253906 C 209.464844 127.253906 208.152344 128.570312 208.152344 130.175781 L 208.152344 143.640625 C 208.152344 145.242188 209.464844 146.558594 211.070312 146.558594 L 244.078125 146.558594 C 245.6875 146.558594 247 145.242188 247 143.640625 L 247 130.175781 C 247 128.570312 245.6875 127.253906 244.078125 127.253906 Z M 194.511719 140.738281 L 185.351562 140.738281 L 185.351562 133.074219 L 194.511719 133.074219 Z M 197.421875 146.558594 C 199.023438 146.558594 200.347656 145.242188 200.347656 143.640625 L 200.347656 130.175781 C 200.347656 128.570312 199.023438 127.253906 197.421875 127.253906 L 182.4375 127.253906 C 180.832031 127.253906 179.515625 128.570312 179.515625 130.175781 L 179.515625 143.640625 C 179.515625 145.242188 180.832031 146.558594 182.4375 146.558594 Z M 170.140625 169.273438 L 96.6875 169.273438 L 96.6875 161.597656 L 170.140625 161.597656 Z M 173.058594 155.777344 L 93.769531 155.777344 C 92.160156 155.777344 90.851562 157.097656 90.851562 158.691406 L 90.851562 172.183594 C 90.851562 173.777344 92.160156 175.09375 93.769531 175.09375 L 173.058594 175.09375 C 174.652344 175.09375 175.976562 173.777344 175.976562 172.183594 L 175.976562 158.691406 C 175.976562 157.097656 174.652344 155.777344 173.058594 155.777344 Z M 241.164062 169.273438 L 226.410156 169.273438 L 226.410156 161.597656 L 241.164062 161.597656 Z M 244.078125 155.777344 L 223.496094 155.777344 C 221.882812 155.777344 220.574219 157.097656 220.574219 158.691406 L 220.574219 172.183594 C 220.574219 173.777344 221.882812 175.09375 223.496094 175.09375 L 244.078125 175.09375 C 245.6875 175.09375 247 173.777344 247 172.183594 L 247 158.691406 C 247 157.097656 245.6875 155.777344 244.078125 155.777344 Z M 97.289062 133.074219 L 106.441406 133.074219 L 106.441406 140.738281 L 97.289062 140.738281 Z M 91.453125 130.175781 L 91.453125 143.640625 C 91.453125 145.242188 92.761719 146.558594 94.375 146.558594 L 109.359375 146.558594 C 110.960938 146.558594 112.277344 145.242188 112.277344 143.640625 L 112.277344 130.175781 C 112.277344 128.570312 110.960938 127.253906 109.359375 127.253906 L 94.375 127.253906 C 92.761719 127.253906 91.453125 128.570312 91.453125 130.175781 Z M 201.199219 104.59375 L 210.339844 104.59375 L 210.339844 112.226562 L 201.199219 112.226562 Z M 198.285156 118.046875 L 213.257812 118.046875 C 214.867188 118.046875 216.179688 116.738281 216.179688 115.140625 L 216.179688 101.679688 C 216.179688 100.085938 214.867188 98.773438 213.257812 98.773438 L 198.285156 98.773438 C 196.671875 98.773438 195.363281 100.085938 195.363281 101.679688 L 195.363281 115.140625 C 195.363281 116.738281 196.671875 118.046875 198.285156 118.046875 Z M 170.371094 104.59375 L 179.519531 104.59375 L 179.519531 112.226562 L 170.371094 112.226562 Z M 167.457031 118.046875 L 182.433594 118.046875 C 184.046875 118.046875 185.355469 116.738281 185.355469 115.140625 L 185.355469 101.679688 C 185.355469 100.085938 184.046875 98.773438 182.433594 98.773438 L 167.457031 98.773438 C 165.851562 98.773438 164.535156 100.085938 164.535156 101.679688 L 164.535156 115.140625 C 164.535156 116.738281 165.851562 118.046875 167.457031 118.046875 Z M 126.648438 133.074219 L 135.796875 133.074219 L 135.796875 140.738281 L 126.648438 140.738281 Z M 120.8125 130.175781 L 120.8125 143.640625 C 120.8125 145.242188 122.125 146.558594 123.734375 146.558594 L 138.710938 146.558594 C 140.316406 146.558594 141.632812 145.242188 141.632812 143.640625 L 141.632812 130.175781 C 141.632812 128.570312 140.316406 127.253906 138.710938 127.253906 L 123.734375 127.253906 C 122.125 127.253906 120.8125 128.570312 120.8125 130.175781 Z M 165.15625 140.738281 L 156 140.738281 L 156 133.074219 L 165.15625 133.074219 Z M 153.089844 127.253906 C 151.476562 127.253906 150.164062 128.570312 150.164062 130.175781 L 150.164062 143.640625 C 150.164062 145.242188 151.476562 146.558594 153.089844 146.558594 L 168.066406 146.558594 C 169.675781 146.558594 170.992188 145.242188 170.992188 143.640625 L 170.992188 130.175781 C 170.992188 128.574219 169.675781 127.253906 168.066406 127.253906 Z M 108.726562 104.59375 L 117.878906 104.59375 L 117.878906 112.226562 L 108.726562 112.226562 Z M 105.8125 118.046875 L 120.792969 118.046875 C 122.40625 118.046875 123.714844 116.738281 123.714844 115.140625 L 123.714844 101.679688 C 123.714844 100.085938 122.40625 98.773438 120.792969 98.773438 L 105.8125 98.773438 C 104.210938 98.773438 102.890625 100.085938 102.890625 101.679688 L 102.890625 115.140625 C 102.890625 116.738281 104.210938 118.046875 105.8125 118.046875 Z M 139.546875 104.59375 L 148.699219 104.59375 L 148.699219 112.226562 L 139.546875 112.226562 Z M 136.632812 118.046875 L 151.613281 118.046875 C 153.226562 118.046875 154.535156 116.738281 154.535156 115.140625 L 154.535156 101.679688 C 154.535156 100.085938 153.226562 98.773438 151.613281 98.773438 L 136.632812 98.773438 C 135.027344 98.773438 133.710938 100.085938 133.710938 101.679688 L 133.710938 115.140625 C 133.710938 116.738281 135.027344 118.046875 136.632812 118.046875 Z M 260.152344 181.230469 C 260.152344 184.4375 257.511719 187.058594 254.304688 187.058594 L 21.949219 187.058594 C 18.738281 187.058594 16.101562 184.4375 16.101562 181.230469 L 16.101562 92.632812 C 16.101562 89.429688 18.734375 86.804688 21.949219 86.804688 L 230.664062 86.804688 L 230.664062 67.128906 C 230.664062 62.738281 227.082031 59.164062 222.679688 59.164062 L 81.699219 59.164062 C 74.363281 59.164062 68.394531 53.214844 68.394531 45.894531 L 68.394531 13.597656 L 73.71875 13.597656 L 73.71875 45.894531 C 73.71875 50.285156 77.296875 53.855469 81.699219 53.855469 L 222.679688 53.855469 C 230.015625 53.855469 235.984375 59.808594 235.984375 67.128906 L 235.984375 86.804688 L 254.304688 86.804688 C 257.511719 86.804688 260.152344 89.429688 260.152344 92.632812 Z M 254.304688 80.988281 L 241.824219 80.988281 L 241.824219 67.128906 C 241.824219 56.601562 233.234375 48.039062 222.679688 48.039062 L 81.699219 48.039062 C 80.519531 48.039062 79.554688 47.074219 79.554688 45.894531 L 79.554688 7.777344 L 62.558594 7.777344 L 62.558594 45.894531 C 62.558594 56.421875 71.144531 64.984375 81.699219 64.984375 L 222.679688 64.984375 C 223.863281 64.984375 224.828125 65.949219 224.828125 67.128906 L 224.828125 80.984375 L 21.949219 80.984375 C 15.503906 80.984375 10.265625 86.210938 10.265625 92.632812 L 10.265625 181.230469 C 10.265625 187.652344 15.503906 192.878906 21.949219 192.878906 L 254.304688 192.878906 C 260.746094 192.878906 265.988281 187.652344 265.988281 181.230469 L 265.988281 92.632812 C 265.988281 86.210938 260.746094 80.988281 254.304688 80.988281 " fill-opacity="1" fill-rule="nonzero"/></g><g fill="#c2c5aa" fill-opacity="1"><g transform="translate(282.704899, 108.270004)"><g><path d="M 39.550781 0 L 48.339844 0 L 48.339844 -61.527344 L 39.550781 -61.527344 L 39.550781 -52.734375 L 30.761719 -52.734375 L 30.761719 -43.945312 L 39.550781 -43.945312 Z M 4.394531 0 L 13.183594 0 L 13.183594 -43.945312 L 21.972656 -43.945312 L 21.972656 -52.734375 L 13.183594 -52.734375 L 13.183594 -61.527344 L 4.394531 -61.527344 Z M 21.972656 -35.15625 L 30.761719 -35.15625 L 30.761719 -43.945312 L 21.972656 -43.945312 Z M 21.972656 -35.15625 "/></g></g></g><g fill="#c2c5aa" fill-opacity="1"><g transform="translate(335.436528, 108.270004)"><g><path d="M 4.394531 0 L 13.183594 0 L 13.183594 -43.945312 L 4.394531 -43.945312 Z M 4.394531 -52.734375 L 13.183594 -52.734375 L 13.183594 -61.527344 L 4.394531 -61.527344 Z M 4.394531 -52.734375 "/></g></g></g><g fill="#c2c5aa" fill-opacity="1"><g transform="translate(353.013737, 108.270004)"><g><path d="M 39.550781 0 L 48.339844 0 L 48.339844 -35.15625 L 39.550781 -35.15625 Z M 4.394531 0 L 13.183594 0 L 13.183594 -35.15625 L 4.394531 -35.15625 Z M 13.183594 -35.15625 L 39.550781 -35.15625 L 39.550781 -43.945312 L 13.183594 -43.945312 Z M 13.183594 -35.15625 "/></g></g></g><g fill="#c2c5aa" fill-opacity="1"><g transform="translate(405.745366, 108.270004)"><g><path d="M 4.394531 0 L 13.183594 0 L 13.183594 -43.945312 L 4.394531 -43.945312 Z M 4.394531 -52.734375 L 13.183594 -52.734375 L 13.183594 -61.527344 L 4.394531 -61.527344 Z M 4.394531 -52.734375 "/></g></g></g><g fill="#c2c5aa" fill-opacity="1"><g transform="translate(423.322575, 108.270004)"><g><path d="M 57.132812 0 L 65.921875 0 L 65.921875 -35.15625 L 57.132812 -35.15625 Z M 4.394531 0 L 13.183594 0 L 13.183594 -35.15625 L 4.394531 -35.15625 Z M 13.183594 -35.15625 L 30.761719 -35.15625 L 30.761719 -43.945312 L 13.183594 -43.945312 Z M 30.761719 0 L 39.550781 0 L 39.550781 -35.15625 L 30.761719 -35.15625 Z M 39.550781 -35.15625 L 57.132812 -35.15625 L 57.132812 -43.945312 L 39.550781 -43.945312 Z M 39.550781 -35.15625 "/></g></g></g><g fill="#c2c5aa" fill-opacity="1"><g transform="translate(493.631428, 108.270004)"><g><path d="M 13.183594 0 L 48.339844 0 L 48.339844 -35.15625 L 39.550781 -35.15625 L 39.550781 -26.367188 L 13.183594 -26.367188 L 13.183594 -17.578125 L 39.550781 -17.578125 L 39.550781 -8.789062 L 13.183594 -8.789062 Z M 4.394531 -8.789062 L 13.183594 -8.789062 L 13.183594 -17.578125 L 4.394531 -17.578125 Z M 13.183594 -35.15625 L 39.550781 -35.15625 L 39.550781 -43.945312 L 13.183594 -43.945312 Z M 13.183594 -35.15625 "/></g></g></g><g fill="#c2c5aa" fill-opacity="1"><g transform="translate(546.36304, 108.270004)"><g><path d="M 4.394531 -8.789062 L 13.183594 -8.789062 L 13.183594 -61.527344 L 4.394531 -61.527344 Z M 13.183594 0 L 21.972656 0 L 21.972656 -8.789062 L 13.183594 -8.789062 Z M 13.183594 0 "/></g></g></g><g fill="#c2c5aa" fill-opacity="1"><g transform="translate(569.205727, 108.270004)"><g/></g></g><g fill="#c2c5aa" fill-opacity="1"><g transform="translate(282.704899, 190.869318)"><g><path d="M 4.394531 0 L 13.183594 0 L 13.183594 -26.367188 L 30.761719 -26.367188 L 30.761719 -35.15625 L 13.183594 -35.15625 L 13.183594 -61.527344 L 4.394531 -61.527344 Z M 30.761719 -17.578125 L 39.550781 -17.578125 L 39.550781 -26.367188 L 30.761719 -26.367188 Z M 30.761719 -35.15625 L 39.550781 -35.15625 L 39.550781 -43.945312 L 30.761719 -43.945312 Z M 39.550781 0 L 48.339844 0 L 48.339844 -17.578125 L 39.550781 -17.578125 Z M 39.550781 -43.945312 L 48.339844 -43.945312 L 48.339844 -61.527344 L 39.550781 -61.527344 Z M 39.550781 -43.945312 "/></g></g></g><g fill="#c2c5aa" fill-opacity="1"><g transform="translate(335.436528, 190.869318)"><g><path d="M 4.394531 -8.789062 L 13.183594 -8.789062 L 13.183594 -17.578125 L 39.550781 -17.578125 L 39.550781 -26.367188 L 13.183594 -26.367188 L 13.183594 -35.15625 L 4.394531 -35.15625 Z M 13.183594 0 L 39.550781 0 L 39.550781 -8.789062 L 13.183594 -8.789062 Z M 13.183594 -35.15625 L 39.550781 -35.15625 L 39.550781 -43.945312 L 13.183594 -43.945312 Z M 39.550781 -26.367188 L 48.339844 -26.367188 L 48.339844 -35.15625 L 39.550781 -35.15625 Z M 39.550781 -26.367188 "/></g></g></g><g fill="#c2c5aa" fill-opacity="1"><g transform="translate(388.168156, 190.869318)"><g><path d="M 39.550781 8.789062 L 13.183594 8.789062 L 13.183594 17.578125 L 39.550781 17.578125 Z M 4.394531 -8.789062 L 13.183594 -8.789062 L 13.183594 -43.945312 L 4.394531 -43.945312 Z M 13.183594 0 L 39.550781 0 L 39.550781 8.789062 L 48.339844 8.789062 L 48.339844 -43.945312 L 39.550781 -43.945312 L 39.550781 -8.789062 L 13.183594 -8.789062 Z M 13.183594 0 "/></g></g></g><g fill="#c2c5aa" fill-opacity="1"><g transform="translate(440.899784, 190.869318)"><g><path d="M 4.394531 0 L 39.550781 0 L 39.550781 -8.789062 L 13.183594 -8.789062 L 13.183594 -35.15625 L 39.550781 -35.15625 L 39.550781 -43.945312 L 13.183594 -43.945312 L 13.183594 -61.527344 L 4.394531 -61.527344 Z M 39.550781 -8.789062 L 48.339844 -8.789062 L 48.339844 -35.15625 L 39.550781 -35.15625 Z M 39.550781 -8.789062 "/></g></g></g><g fill="#c2c5aa" fill-opacity="1"><g transform="translate(493.631412, 190.869318)"><g><path d="M 39.550781 -8.789062 L 13.183594 -8.789062 L 13.183594 0 L 39.550781 0 Z M 4.394531 -8.789062 L 13.183594 -8.789062 L 13.183594 -35.15625 L 4.394531 -35.15625 Z M 13.183594 -35.15625 L 39.550781 -35.15625 L 39.550781 -43.945312 L 13.183594 -43.945312 Z M 39.550781 -8.789062 L 48.339844 -8.789062 L 48.339844 -35.15625 L 39.550781 -35.15625 Z M 39.550781 -8.789062 "/></g></g></g><g fill="#c2c5aa" fill-opacity="1"><g transform="translate(546.36304, 190.869318)"><g><path d="M 13.183594 0 L 48.339844 0 L 48.339844 -35.15625 L 39.550781 -35.15625 L 39.550781 -26.367188 L 13.183594 -26.367188 L 13.183594 -17.578125 L 39.550781 -17.578125 L 39.550781 -8.789062 L 13.183594 -8.789062 Z M 4.394531 -8.789062 L 13.183594 -8.789062 L 13.183594 -17.578125 L 4.394531 -17.578125 Z M 13.183594 -35.15625 L 39.550781 -35.15625 L 39.550781 -43.945312 L 13.183594 -43.945312 Z M 13.183594 -35.15625 "/></g></g></g><g fill="#c2c5aa" fill-opacity="1"><g transform="translate(599.094669, 190.869318)"><g><path d="M 4.394531 0 L 13.183594 0 L 13.183594 -26.367188 L 21.972656 -26.367188 L 21.972656 -35.15625 L 13.183594 -35.15625 L 13.183594 -43.945312 L 4.394531 -43.945312 Z M 21.972656 -35.15625 L 39.550781 -35.15625 L 39.550781 -43.945312 L 21.972656 -43.945312 Z M 21.972656 -35.15625 "/></g></g></g><g fill="#c2c5aa" fill-opacity="1"><g transform="translate(643.037692, 190.869318)"><g><path d="M 13.183594 0 L 48.339844 0 L 48.339844 -61.527344 L 39.550781 -61.527344 L 39.550781 -43.945312 L 13.183594 -43.945312 L 13.183594 -35.15625 L 39.550781 -35.15625 L 39.550781 -8.789062 L 13.183594 -8.789062 Z M 4.394531 -8.789062 L 13.183594 -8.789062 L 13.183594 -35.15625 L 4.394531 -35.15625 Z M 4.394531 -8.789062 "/></g></g></g><g fill="#c2c5aa" fill-opacity="1"><g transform="translate(695.76932, 190.869318)"><g><path d="M 13.183594 -35.15625 L 4.394531 -35.15625 L 4.394531 -26.367188 L 13.183594 -26.367188 Z M 4.394531 0 L 30.761719 0 L 30.761719 -8.789062 L 4.394531 -8.789062 Z M 13.183594 -17.578125 L 30.761719 -17.578125 L 30.761719 -26.367188 L 13.183594 -26.367188 Z M 13.183594 -35.15625 L 39.550781 -35.15625 L 39.550781 -43.945312 L 13.183594 -43.945312 Z M 30.761719 -8.789062 L 39.550781 -8.789062 L 39.550781 -17.578125 L 30.761719 -17.578125 Z M 30.761719 -8.789062 "/></g></g></g></svg>